<svg width="380" height="380" viewBox="0 0 380 380" fill="none" xmlns="http://www.w3.org/2000/svg">
<rect width="380" height="380" fill="#1E1E1E"/>
<rect width="380" height="380" fill="white"/>
<path d="M64 119C64 109.611 71.6112 102 81 102V102C90.3888 102 98 109.611 98 119V236.6C98 247.235 98 252.553 96.0291 256.657C94.0612 260.756 90.7557 264.061 86.6575 266.029C82.5531 268 77.2354 268 66.6 268H64V119Z" fill="#232323"/>
<path d="M283 119C283 109.611 290.611 102 300 102V102C309.389 102 317 109.611 317 119V251C317 260.389 309.389 268 300 268V268C290.611 268 283 260.389 283 251V119Z" fill="#232323"/>
<path d="M107 162C107 152.611 114.611 145 124 145V145C133.389 145 141 152.611 141 162V208C141 217.389 133.389 225 124 225V225C114.611 225 107 217.389 107 208V162Z" fill="#232323"/>
<path d="M239 184C239 174.611 246.611 167 256 167V167C265.389 167 273 174.611 273 184V187C273 196.389 265.389 204 256 204V204C246.611 204 239 196.389 239 187V184Z" fill="#232323"/>
<rect x="150" y="167" width="34" height="53" rx="17" fill="#232323"/>
<path d="M195 167H197.6C208.235 167 213.553 167 217.657 168.971C221.756 170.939 225.061 174.244 227.029 178.343C229 182.447 229 187.765 229 198.4V246C229 255.389 221.389 263 212 263V263C202.611 263 195 255.389 195 246V167Z" fill="#232323"/>
</svg>
